<?xml version="1.0" standalone="no"?>
<!DOCTYPE svg PUBLIC "-//W3C//DTD SVG 20010904//EN"
 "http://www.w3.org/TR/2001/REC-SVG-20010904/DTD/svg10.dtd">
<svg version="1.0" xmlns="http://www.w3.org/2000/svg"
 width="1000.000000pt" height="1000.000000pt" viewBox="0 0 1000.000000 1000.000000"
 preserveAspectRatio="xMidYMid meet">
<metadata>
Created by potrace 1.11, written by Peter Selinger 2001-2013
</metadata>
<g transform="translate(0.000000,1000.000000) scale(0.100000,-0.100000)"
fill="#000000" stroke="none">
<path d="M3007 8333 c-4 -3 -7 -57 -7 -120 l0 -113 1025 0 1025 0 5 23 c11 49
35 183 35 200 0 16 -56 17 -1038 17 -571 0 -1042 -3 -1045 -7z"/>
<path d="M5255 8273 c-32 -127 -1296 -5247 -1329 -5385 l-33 -138 126 0 126 0
164 668 c318 1298 1201 4887 1207 4905 5 16 -5 17 -119 17 l-125 0 -17 -67z"/>
<path d="M5766 8323 c-3 -10 -198 -803 -435 -1763 -612 -2485 -931 -3772 -937
-3792 -5 -17 5 -18 124 -18 l129 0 96 393 c578 2348 1277 5191 1277 5193 0 2
-56 4 -124 4 -110 0 -125 -2 -130 -17z"/>
<path d="M6270 8333 c0 -7 -1085 -4408 -1275 -5170 l-102 -413 126 0 127 0 77
313 c70 285 1279 5202 1292 5255 5 22 5 22 -120 22 -69 0 -125 -3 -125 -7z"/>
<path d="M6770 8334 c0 -5 -739 -3003 -1199 -4864 l-177 -715 124 -3 c69 -1
126 -1 129 1 4 5 1373 5566 1373 5579 0 4 -56 8 -125 8 -69 0 -125 -3 -125 -6z"/>
<path d="M3000 7730 l0 -120 967 2 966 3 13 55 c7 30 19 83 27 118 l15 62
-994 0 -994 0 0 -120z"/>
<path d="M3000 7240 l0 -120 908 0 908 0 27 114 c15 62 27 116 27 120 0 3
-421 6 -935 6 l-935 0 0 -120z"/>
<path d="M135 2050 c3 -307 5 -346 29 -472 31 -170 47 -225 103 -363 53 -130
84 -186 174 -320 61 -90 218 -277 265 -315 11 -9 49 -41 86 -72 222 -188 529
-331 808 -375 109 -17 273 -18 3385 -18 3682 0 3368 -7 3620 76 611 201 1072
720 1199 1349 27 136 36 278 34 559 0 152 -3 260 -4 241 -25 -267 -142 -571
-312 -809 -77 -108 -244 -287 -347 -371 -250 -204 -529 -327 -848 -374 -93
-14 -461 -16 -3338 -16 -3476 0 -3316 -2 -3518 50 -327 83 -614 254 -852 508
-263 280 -426 605 -469 937 -6 50 -13 97 -15 105 -2 8 -2 -136 0 -320z"/>
</g>
</svg>
